<?xml version="1.0" encoding="UTF-8"?>
<svg xmlns="http://www.w3.org/2000/svg" xmlns:xlink="http://www.w3.org/1999/xlink" width="21px" height="21px" viewBox="0 0 21 21" version="1.1">
<g id="surface1">
<path style=" stroke:none;fill-rule:nonzero;fill:rgb(0%,0%,0%);fill-opacity:1;" d="M 6.550781 2.140625 C 6.40625 2.289062 6.300781 3.003906 6.300781 3.886719 C 6.300781 5.082031 6.382812 5.460938 6.679688 5.734375 C 7.644531 6.613281 8.421875 5.839844 8.359375 4.074219 L 8.335938 2.835938 L 8.210938 4.179688 C 8.0625 5.671875 7.664062 6.175781 6.992188 5.753906 C 6.679688 5.566406 6.613281 5.207031 6.613281 3.863281 C 6.613281 2.351562 6.65625 2.203125 7.035156 2.203125 C 7.414062 2.203125 7.453125 2.371094 7.519531 3.71875 C 7.582031 5.523438 7.203125 5.839844 7.078125 4.09375 L 6.992188 2.941406 L 7.015625 4.136719 C 7.035156 5.082031 7.097656 5.355469 7.351562 5.355469 C 7.601562 5.355469 7.6875 5.019531 7.726562 3.925781 C 7.8125 2.140625 7.308594 1.386719 6.550781 2.140625 Z M 6.550781 2.140625 "/>
<path style=" stroke:none;fill-rule:nonzero;fill:rgb(0%,0%,0%);fill-opacity:1;" d="M 4.597656 2.710938 L 3.988281 3.316406 L 3.988281 17.890625 L 5.207031 19.109375 L 9.808594 19.109375 C 13.984375 19.109375 14.46875 19.152344 15.226562 19.53125 C 15.6875 19.761719 16.316406 19.949219 16.632812 19.949219 C 18.667969 19.949219 20.285156 17.933594 19.84375 15.960938 C 19.65625 15.058594 18.628906 13.945312 17.746094 13.648438 L 17.011719 13.398438 L 17.011719 6.40625 L 14.867188 4.261719 L 12.703125 2.101562 L 10.351562 2.101562 C 8.902344 2.101562 7.980469 2.183594 7.980469 2.308594 C 7.980469 2.4375 8.882812 2.519531 10.289062 2.519531 L 12.601562 2.519531 L 12.601562 3.90625 C 12.601562 5.144531 12.664062 5.335938 13.210938 5.902344 C 13.777344 6.445312 13.964844 6.511719 15.203125 6.511719 L 16.589844 6.511719 L 16.589844 9.953125 C 16.589844 13.210938 16.570312 13.398438 16.171875 13.503906 C 15.835938 13.585938 15.75 13.503906 15.730469 13.0625 L 15.707031 12.496094 L 15.5625 13.039062 C 15.496094 13.335938 15.097656 13.882812 14.679688 14.238281 C 14.089844 14.761719 13.714844 14.910156 12.789062 14.972656 L 11.65625 15.035156 L 12.746094 15.078125 L 13.839844 15.121094 L 13.609375 15.75 C 13.503906 16.105469 13.441406 16.675781 13.480469 17.011719 L 13.585938 17.640625 L 9.933594 17.640625 C 6.574219 17.640625 6.257812 17.597656 5.878906 17.21875 C 5.480469 16.820312 5.460938 16.527344 5.460938 10.648438 C 5.460938 5.398438 5.503906 4.429688 5.796875 3.988281 L 6.132812 3.464844 L 5.691406 3.96875 C 5.269531 4.429688 5.25 4.683594 5.25 10.648438 L 5.25 16.820312 L 5.773438 17.324219 C 6.277344 17.851562 6.34375 17.851562 9.953125 17.851562 C 13.417969 17.851562 13.648438 17.871094 13.859375 18.269531 C 14.089844 18.691406 14.027344 18.691406 9.703125 18.691406 C 5.398438 18.691406 5.3125 18.691406 4.871094 18.207031 C 4.410156 17.722656 4.410156 17.617188 4.410156 10.585938 L 4.410156 3.421875 L 4.894531 2.980469 C 5.164062 2.730469 5.542969 2.519531 5.734375 2.519531 C 5.921875 2.519531 6.089844 2.414062 6.089844 2.308594 C 6.089844 1.867188 5.1875 2.121094 4.597656 2.710938 Z M 14.804688 4.410156 L 16.695312 6.300781 L 15.265625 6.300781 C 14.027344 6.300781 13.777344 6.238281 13.335938 5.773438 C 12.871094 5.335938 12.808594 5.082031 12.808594 3.886719 C 12.808594 3.128906 12.832031 2.519531 12.871094 2.519531 C 12.894531 2.519531 13.777344 3.359375 14.804688 4.410156 Z M 18.039062 14.238281 C 18.878906 14.679688 19.53125 15.769531 19.53125 16.695312 C 19.53125 18.144531 18.144531 19.53125 16.695312 19.53125 C 15.246094 19.53125 13.859375 18.144531 13.859375 16.695312 C 13.859375 15.246094 15.246094 13.859375 16.695312 13.859375 C 17.050781 13.859375 17.660156 14.027344 18.039062 14.238281 Z M 18.039062 14.238281 "/>
<path style=" stroke:none;fill-rule:nonzero;fill:rgb(0%,0%,0%);fill-opacity:1;" d="M 16.421875 16.191406 C 15.078125 17.554688 14.699219 18.417969 15.601562 18.164062 C 16.339844 17.933594 18.289062 15.917969 18.226562 15.457031 C 18.121094 14.722656 17.746094 14.890625 16.421875 16.191406 Z M 18.058594 15.5625 C 18.058594 15.6875 17.976562 15.707031 17.851562 15.644531 C 17.746094 15.582031 17.640625 15.644531 17.640625 15.792969 C 17.640625 16.273438 16.042969 17.722656 15.855469 17.429688 C 15.75 17.261719 16.066406 16.800781 16.714844 16.171875 C 17.683594 15.226562 18.058594 15.058594 18.058594 15.5625 Z M 18.058594 15.5625 "/>
<path style=" stroke:none;fill-rule:nonzero;fill:rgb(0%,0%,0%);fill-opacity:1;" d="M 15.582031 10.078125 C 15.582031 10.375 15.625 10.480469 15.6875 10.332031 C 15.730469 10.207031 15.730469 9.953125 15.6875 9.808594 C 15.625 9.679688 15.582031 9.785156 15.582031 10.078125 Z M 15.582031 10.078125 "/>
<path style=" stroke:none;fill-rule:nonzero;fill:rgb(0%,0%,0%);fill-opacity:1;" d="M 7.519531 10.648438 C 8.230469 10.6875 9.367188 10.6875 10.039062 10.648438 C 10.6875 10.605469 10.101562 10.585938 8.714844 10.585938 C 7.328125 10.585938 6.78125 10.605469 7.519531 10.648438 Z M 7.519531 10.648438 "/>
<path style=" stroke:none;fill-rule:nonzero;fill:rgb(0%,0%,0%);fill-opacity:1;" d="M 15.601562 11.550781 C 15.601562 12.074219 15.644531 12.285156 15.6875 12.011719 C 15.730469 11.761719 15.730469 11.339844 15.6875 11.066406 C 15.644531 10.816406 15.601562 11.023438 15.601562 11.550781 Z M 15.601562 11.550781 "/>
<path style=" stroke:none;fill-rule:nonzero;fill:rgb(0%,0%,0%);fill-opacity:1;" d="M 6.992188 12.117188 C 7.414062 12.160156 8.128906 12.160156 8.566406 12.117188 C 8.988281 12.074219 8.632812 12.03125 7.769531 12.03125 C 6.910156 12.03125 6.550781 12.074219 6.992188 12.117188 Z M 6.992188 12.117188 "/>
<path style=" stroke:none;fill-rule:nonzero;fill:rgb(0%,0%,0%);fill-opacity:1;" d="M 10.773438 12.117188 C 11.550781 12.160156 12.789062 12.160156 13.503906 12.117188 C 14.21875 12.074219 13.585938 12.054688 12.074219 12.054688 C 10.5625 12.054688 9.996094 12.074219 10.773438 12.117188 Z M 10.773438 12.117188 "/>
<path style=" stroke:none;fill-rule:nonzero;fill:rgb(0%,0%,0%);fill-opacity:1;" d="M 7.203125 13.585938 C 7.75 13.628906 8.632812 13.628906 9.199219 13.585938 C 9.742188 13.546875 9.28125 13.523438 8.191406 13.523438 C 7.097656 13.523438 6.636719 13.546875 7.203125 13.585938 Z M 7.203125 13.585938 "/>
<path style=" stroke:none;fill-rule:nonzero;fill:rgb(0%,0%,0%);fill-opacity:1;" d="M 10.855469 13.585938 C 11.234375 13.628906 11.90625 13.628906 12.328125 13.585938 C 12.769531 13.546875 12.472656 13.503906 11.65625 13.503906 C 10.855469 13.503906 10.5 13.546875 10.855469 13.585938 Z M 10.855469 13.585938 "/>
<path style=" stroke:none;fill-rule:nonzero;fill:rgb(0%,0%,0%);fill-opacity:1;" d="M 13.609375 13.585938 C 13.859375 13.628906 14.238281 13.628906 14.449219 13.585938 C 14.636719 13.523438 14.425781 13.480469 13.964844 13.503906 C 13.503906 13.503906 13.335938 13.546875 13.609375 13.585938 Z M 13.609375 13.585938 "/>
<path style=" stroke:none;fill-rule:nonzero;fill:rgb(0%,0%,0%);fill-opacity:1;" d="M 7.621094 15.058594 C 8.398438 15.097656 9.640625 15.097656 10.351562 15.058594 C 11.066406 15.015625 10.4375 14.992188 8.925781 14.992188 C 7.414062 14.992188 6.847656 15.015625 7.621094 15.058594 Z M 7.621094 15.058594 "/>
</g>
</svg>
