<?xml version="1.0" standalone="no"?>
<!DOCTYPE svg PUBLIC "-//W3C//DTD SVG 20010904//EN"
 "http://www.w3.org/TR/2001/REC-SVG-20010904/DTD/svg10.dtd">
<svg version="1.0" xmlns="http://www.w3.org/2000/svg"
 width="100.000000pt" height="100.000000pt" viewBox="0 0 100.000000 100.000000"
 preserveAspectRatio="xMidYMid meet">

<g transform="translate(0.000000,100.000000) scale(0.100000,-0.100000)"
fill="#000000" stroke="none">
<path d="M312 898 c-7 -7 -12 -41 -12 -83 0 -57 4 -75 18 -88 46 -42 83 -5 80
79 l-1 59 -6 -64 c-7 -71 -26 -95 -58 -75 -15 9 -18 26 -18 90 0 72 2 79 20
79 18 0 20 -8 23 -72 3 -86 -15 -101 -21 -18 l-4 55 1 -57 c1 -45 4 -58 16
-58 12 0 16 16 18 68 4 85 -20 121 -56 85z"/>
<path d="M219 871 l-29 -29 0 -347 0 -347 29 -29 29 -29 219 0 c199 0 222 -2
258 -20 22 -11 52 -20 67 -20 97 0 174 96 153 190 -9 43 -58 96 -100 110 l-35
12 0 166 0 167 -102 102 -103 103 -112 0 c-69 0 -113 -4 -113 -10 0 -6 43 -10
110 -10 l110 0 0 -66 c0 -59 3 -68 29 -95 27 -26 36 -29 95 -29 l66 0 0 -164
c0 -155 -1 -164 -20 -169 -16 -4 -20 0 -21 21 l-1 27 -7 -26 c-3 -14 -22 -40
-42 -57 -28 -25 -46 -32 -90 -35 l-54 -3 52 -2 52 -2 -11 -30 c-5 -17 -8 -44
-6 -60 l5 -30 -174 0 c-160 0 -175 2 -193 20 -19 19 -20 33 -20 313 0 250 2
296 16 317 l16 25 -21 -24 c-20 -22 -21 -34 -21 -318 l0 -294 25 -24 c24 -25
27 -25 199 -25 165 0 176 -1 186 -20 11 -20 8 -20 -198 -20 -205 0 -209 0
-230 23 -22 23 -22 28 -22 363 l0 341 23 21 c13 12 31 22 40 22 9 0 17 5 17
10 0 21 -43 9 -71 -19z m486 -81 l90 -90 -68 0 c-59 0 -71 3 -92 25 -22 21
-25 33 -25 90 0 36 1 65 3 65 1 0 43 -40 92 -90z m154 -468 c40 -21 71 -73 71
-117 0 -69 -66 -135 -135 -135 -69 0 -135 66 -135 135 0 69 66 135 135 135 17
0 46 -8 64 -18z"/>
<path d="M782 229 c-64 -65 -82 -106 -39 -94 35 11 128 107 125 129 -5 35 -23
27 -86 -35z m78 30 c0 -6 -4 -7 -10 -4 -5 3 -10 0 -10 -7 0 -23 -76 -92 -85
-78 -5 8 10 30 41 60 46 45 64 53 64 29z"/>
<path d="M742 520 c0 -14 2 -19 5 -12 2 6 2 18 0 25 -3 6 -5 1 -5 -13z"/>
<path d="M358 493 c34 -2 88 -2 120 0 31 2 3 3 -63 3 -66 0 -92 -1 -57 -3z"/>
<path d="M743 450 c0 -25 2 -35 4 -22 2 12 2 32 0 45 -2 12 -4 2 -4 -23z"/>
<path d="M333 423 c20 -2 54 -2 75 0 20 2 3 4 -38 4 -41 0 -58 -2 -37 -4z"/>
<path d="M513 423 c37 -2 96 -2 130 0 34 2 4 3 -68 3 -72 0 -99 -1 -62 -3z"/>
<path d="M343 353 c26 -2 68 -2 95 0 26 2 4 3 -48 3 -52 0 -74 -1 -47 -3z"/>
<path d="M517 353 c18 -2 50 -2 70 0 21 2 7 4 -32 4 -38 0 -55 -2 -38 -4z"/>
<path d="M648 353 c12 -2 30 -2 40 0 9 3 -1 5 -23 4 -22 0 -30 -2 -17 -4z"/>
<path d="M363 283 c37 -2 96 -2 130 0 34 2 4 3 -68 3 -72 0 -99 -1 -62 -3z"/>
</g>
</svg>
